<?xml version="1.0" encoding="utf-8" ?>
<svg xmlns="http://www.w3.org/2000/svg" xmlns:xlink="http://www.w3.org/1999/xlink" width="512" height="512">
	<path fill="#F6F7EB" transform="scale(0.666667 0.666667)" d="M-0 -0L768 0L768 768L-0 768L0 -0Z"/>
	<path fill="#E94F37" transform="scale(0.666667 0.666667)" d="M368.144 21.5464C380.567 21.1354 392.97 21.5911 405.375 22.2229C430.943 23.5251 456.791 26.9406 481.55 33.5647C539.113 48.9656 591.797 80.1154 636.055 119.588C660.809 141.665 683.387 167.555 700.974 195.692C711.711 212.87 720.41 231.275 727.713 250.152C740.295 282.673 748.129 315.783 750.097 350.619C752.929 400.726 746.738 452.64 729.625 499.93C714.693 541.195 691.326 579.344 662.159 612.012C631.036 646.87 592.672 673.824 550.846 694.324C534.227 702.47 517.327 709.921 499.791 715.887C467.954 726.719 434.03 733.061 400.464 734.943C328.896 737.618 255.566 718.201 193.705 682.289L165.511 664.003L148.462 652.041C138.614 644.608 129.256 636.49 120.207 628.11C97.7994 607.359 77.9461 583.077 62.4375 556.711C57.49 548.3 53.2087 539.365 49.1019 530.519C44.2095 519.981 39.5343 509.321 35.7489 498.325C24.502 465.658 18.7344 430.705 17.4561 396.217C16.3188 365.53 17.8018 334.874 23.7565 304.689C33.872 253.414 57.4738 205.351 89.929 164.514C97.3052 155.233 105.455 146.439 113.53 137.762C130.698 119.312 150.706 102.882 171.486 88.6639C197.95 70.5564 225.466 55.8488 255.398 44.2927C267.519 39.6129 280.103 35.1541 292.688 31.936C317.147 25.6812 342.943 22.4304 368.144 21.5464Z"/>
	<defs>
		<linearGradient id="gradient_0" gradientUnits="userSpaceOnUse" x1="678.46997" y1="546.72571" x2="91.947784" y2="212.45384">
			<stop offset="0" stop-color="#282828"/>
			<stop offset="1" stop-color="#5D6264"/>
		</linearGradient>
	</defs>
	<path fill="url(#gradient_0)" transform="scale(0.666667 0.666667)" d="M99.7691 284.316L99.9528 214.327C100.074 205.14 99.1331 195.859 106.486 188.895C108.565 186.925 111.308 185.147 114.158 184.629C118.039 183.923 122.451 184.206 126.392 184.183L147.42 184.087L218.745 184.128L655.01 184.328C659.05 184.759 662.964 187.948 665.482 191.042C667.951 194.075 669.485 198.014 669.729 201.92C670.256 210.357 669.777 219.034 669.709 227.501L669.892 266.502L671.09 439.235L670.969 523.642L671.065 544.082C671.153 548.401 671.648 553.045 671.216 557.339C670.758 561.899 668.345 565.898 664.752 568.683C661.949 570.856 658.575 572.198 655.225 573.258C650.844 574.644 644.274 573.559 639.617 573.487L621.484 573.452L488.88 573.069L456.603 573.052C452.093 573.047 446.561 572.425 442.154 573.177L456.111 635.237C458.136 635.775 461.025 635.439 463.167 635.446L480.493 635.509C484.203 635.524 489.156 634.91 492.562 636.355L493.219 636.629C497.736 638.576 501.011 642.09 502.761 646.687C503.934 649.768 504.061 653.993 503.033 657.139L502.827 657.783C501.705 661.148 499.485 663.9 496.312 665.55C494.497 666.494 492.398 666.605 490.389 666.648L451.819 666.691L387.345 666.699L306.699 666.802L285.328 666.755C281.909 666.741 277.255 667.283 274.026 666.185C270.904 665.123 268.349 662.204 266.988 659.296C265.377 655.854 265.652 651.908 266.971 648.422C268.947 643.198 273.37 639.005 278.449 636.782C283.409 634.611 289.698 635.37 295.039 635.374L314.067 635.468L314.138 635.001C315.114 628.912 316.869 622.799 318.138 616.747L325.356 584.812C326.416 580.729 327.334 576.563 328.848 572.618L175.136 572.66L136.666 572.567C130.848 572.544 124.113 573.172 118.42 572.178C113.007 571.233 106.556 566.576 102.752 562.688C100.765 560.656 99.4707 558.547 99.2414 555.669C98.8714 551.024 99.308 546.044 99.3846 541.372L99.6035 516.43L100.064 428.298L99.7475 328.785L99.7015 285.194L99.7691 284.316Z"/>
	<path fill="#393E41" transform="scale(0.666667 0.666667)" d="M423.343 645.181L467.418 644.999L483.212 645.158C485.397 645.237 487.83 645.13 489.975 645.538L490.688 645.687C491.489 645.849 491.935 645.941 492.594 646.461C493.495 647.171 493.99 648.796 494.013 649.898C494.048 651.578 493.029 652.649 491.887 653.758C489.855 655.731 486.902 656.373 484.169 656.64C477.665 657.276 470.849 656.893 464.314 656.834L423.75 656.032L348.875 655.869L276.938 655.691L276.42 654.938C276.274 652.095 276.193 649.554 278.306 647.325C279.282 646.296 280.71 645.908 282.074 645.796C287.958 645.314 294.018 645.588 299.924 645.602L329.718 645.603L423.343 645.181Z"/>
	<path fill="#F6F7EB" transform="scale(0.666667 0.666667)" d="M189.17 211.921L647.486 212.289L647.351 533.15L120.725 533.287L120.616 479.9L120.729 212.28L189.17 211.921Z"/>
	<path fill="#D5D5D6" transform="scale(0.666667 0.666667)" d="M622.899 511.116C618.506 510.453 613.53 510.834 609.069 510.821L581.787 510.747L469.335 510.702L483.375 499.149L501.729 484.006L553.564 440.114L607.767 393.213L616.898 385.194C618.977 383.278 620.914 381.02 623.297 379.49L623.31 510.425L622.899 511.116Z"/>
	<path fill="#E94F37" transform="scale(0.666667 0.666667)" d="M383.289 279.741C383.537 279.713 383.785 279.63 384.032 279.657C384.412 279.7 385.705 280.671 386.066 280.892L394.96 286.619L449.315 323.291L464.608 333.048C465.315 344.207 464.999 355.534 465.035 366.716L464.818 428.095L464.708 444.028C464.714 446.358 465.12 449.308 464.614 451.522L382.483 396.454L381.363 397.245L355.812 415.118L330.689 433.466C320.896 440.398 310.112 446.966 301.105 454.872L301.412 364.249C301.04 360.894 301.258 357.307 301.233 353.926L301.031 334.881C302.034 333.65 303.915 332.753 305.25 331.896L313.607 326.434L344.937 304.798L374.94 283.998C377.545 282.335 380.355 280.736 383.289 279.741Z"/>
</svg>
